# xmcd CD database file
#
# Track frame offsets:
#	150
#	24031
#	32162
#	51627
#	65087
#	78198
#	99893
#	121577
#	139012
#	160322
#	175428
#
# Disc length: 2642 seconds
#
# Revision: 0
# Processed by: cddbd v1.5.2PL0 Copyright (c) Steve Scherf et al.
# Submitted via: CDex 1.70beta2
#
DISCID=880a500b
DTITLE=Keever - Always Searching For Something More Beautiful
DYEAR=2005
DGENRE=Indie - Slowcore - Lofi
TTITLE0=Little Door
TTITLE1=Details and Wonder
TTITLE2=Lucky Luke
TTITLE3=Face Front
TTITLE4=Your name
TTITLE5=The Lyrics Go On
TTITLE6=Sunset In The East
TTITLE7=The Misses
TTITLE8=Lions
TTITLE9=Down and Out
TTITLE10=Riot
EXTD=YEAR: 2005
EXTT0=
EXTT1=
EXTT2=
EXTT3=
EXTT4=
EXTT5=
EXTT6=
EXTT7=
EXTT8=
EXTT9=
EXTT10=
PLAYORDER=
